<?xml version="1.0" encoding="UTF-8"?>
<svg width="76px" height="90px" viewBox="0 0 76 90" version="1.1" xmlns="http://www.w3.org/2000/svg" xmlns:xlink="http://www.w3.org/1999/xlink">
    <!-- Generator: Sketch 50.2 (55047) - http://www.bohemiancoding.com/sketch -->
    <title>np_back_1065971_000000</title>
    <desc>Created with Sketch.</desc>
    <defs></defs>
    <g id="Page-1" stroke="none" stroke-width="1" fill="none" fill-rule="evenodd">
        <g id="np_back_1065971_000000" fill="#000000" fill-rule="nonzero">
            <path d="M65.16,20.191 C58.5975,14.148 49.652,11.3316 37.012,11.3316 C33.305,11.3316 29.5667,11.57379 26.168,11.86285 C26.00394,10.63625 25.77347,9.47615 25.54691,8.33945 C25.17972,6.47615 24.82816,4.71445 24.80472,2.80035 C24.789094,1.53865 23.94534,0.44095 22.73052,0.10505 C21.51572,-0.23089 20.22662,0.27302 19.56252,1.34335 L1.00752,31.29235 C0.25752,32.50325 0.52315,34.08145 1.62471,34.97985 C5.28491,37.96425 9.48411,40.81965 13.54271,43.58145 C17.50751,46.27675 21.60131,49.06585 25.07771,51.89785 C25.9488,52.60879 27.16361,52.73769 28.16361,52.22207 C29.16751,51.70645 29.76911,50.64787 29.69881,49.52677 L29.09334,39.81977 C30.59334,39.26508 32.21444,38.98383 33.93314,38.98383 C39.81594,38.98383 45.56614,42.28073 48.24214,47.18303 C52.10154,54.24943 50.08984,64.10103 43.66794,69.60903 C39.66014,73.04263 34.22654,74.46453 29.92594,73.11293 C25.45714,71.71063 22.31654,66.90593 23.20324,62.83593 C23.38683,61.99609 23.175896,61.11713 22.63683,60.44923 C22.09386,59.78126 21.24233,59.44533 20.41803,59.39843 C18.51183,59.410148 16.09773,59.66015 13.76573,59.90234 C11.56653,60.13281 9.28913,60.36718 7.66023,60.3789 C6.85164,60.382806 6.08603,60.73046 5.55083,61.33593 C5.01567,61.9414 4.76567,62.74613 4.86333,63.54683 C6.27353,75.38283 15.71533,85.83183 27.81633,88.96483 C30.45303,89.65233 33.21473,90.00003 36.01943,90.00003 L36.023337,90.00003 C45.046737,90.00003 54.168337,86.43753 61.035337,80.22273 C69.418137,72.64073 74.633337,61.26973 75.340337,49.02773 C76.012217,37.28173 72.305137,26.76973 65.160337,20.19173 L65.16,20.191 Z M12.648,69.961 C11.99175,68.6407 11.4527,67.2696 11.0699,65.8672 C12.1402,65.77345 13.2535,65.66017 14.3472,65.54689 C15.3745,65.44142 16.4214,65.33205 17.4097,65.2422 C17.429232,65.50782 17.495638,65.76564 17.53079,66.02736 C15.68699,67.03126 13.93309,68.35936 12.64799,69.96096 L12.648,69.961 Z M16.6558,75.7969 C15.67142,74.7188 14.7886,73.5586 14.0074,72.3477 C14.62849,71.58598 15.2457,70.8204 15.9488,70.1094 C16.58942,69.46487 17.3043,68.8946 18.0543,68.3789 C18.50742,69.8164 19.1832,71.1875 20.0621,72.4531 C18.9098,73.5156 17.7144,74.6133 16.6559,75.7969 L16.6558,75.7969 Z M18.687,77.7891 C19.6909,76.668 20.6089,75.4297 21.4956,74.2188 C22.6753,75.4805 24.0542,76.5704 25.6206,77.4024 C25.35498,77.72271 25.10498,78.05474 24.83154,78.37115 C24.07373,79.23443 23.36674,79.93755 22.77684,80.77345 C21.31984,79.91017 19.94874,78.90625 18.68704,77.78905 L18.687,77.7891 Z M30.761,83.7735 C30.25319,83.67194 29.7337,83.61334 29.2337,83.48444 C27.6751,83.0821 26.1712,82.51569 24.7298,81.82034 C25.8509,80.87893 26.7962,79.60554 27.6087,78.27344 C27.81964,78.347658 28.01104,78.45313 28.22589,78.51953 C30.08139,79.10156 32.06969,79.30078 34.08529,79.21875 C33.55795,79.95703 33.03449,80.69145 32.50719,81.42965 C31.96422,82.19527 31.30019,82.96085 30.76109,83.77345 L30.761,83.7735 Z M40.968,83.89069 C39.3274,84.16803 37.6711,84.336 36.0227,84.336 L36.018793,84.336 C35.272703,84.336 34.542193,84.257874 33.803993,84.19928 C34.100863,83.68366 34.382113,83.16808 34.675083,82.70318 C35.479773,81.42588 36.284483,80.14848 37.089183,78.87118 C40.073583,78.28915 43.014983,77.05868 45.624383,75.22668 C45.280633,75.82434 44.925163,76.41418 44.589183,77.01578 C43.479783,79.00798 41.882183,81.44548 40.968083,83.89078 L40.968,83.89069 Z M69.679,48.69969 C69.05791,59.46569 64.5228,69.42269 57.234,76.01569 C53.859,79.07039 49.8434,81.33989 45.586,82.73839 C45.98834,81.84386 46.38287,80.95319 46.8048,80.12899 C48.7071,76.43369 50.2423,72.53519 51.84,68.68799 C56.4611,61.43019 57.2345,51.83299 53.2111,44.46899 C49.5666,37.79709 41.8201,33.31699 33.9261,33.31699 C30.6722,33.31699 27.5159,34.09043 24.7933,35.55529 C23.81674,36.07873 23.2386,37.12169 23.3089,38.22719 L23.64874,43.69989 C21.37924,42.06319 19.03154,40.46939 16.72684,38.89909 C13.48854,36.69599 10.15654,34.43029 7.15264,32.12959 L20.27764,10.94559 C20.51983,12.27369 20.71123,13.58619 20.72686,14.98079 C20.734673,15.77376 21.07842,16.52769 21.66827,17.05499 C22.25811,17.58233 23.03937,17.84405 23.83237,17.76593 C27.79717,17.38702 32.45737,16.9964 37.00837,16.9964 C48.14137,16.9964 55.86337,19.3362 61.31737,24.3558 C67.21187,29.7855 70.25877,38.6568 69.68067,48.6998 L69.679,48.69969 Z" id="Shape"></path>
            <path d="M36.992,19.117 C34.8982,19.117 34.8982,22.3631 36.992,22.3631 C39.0858,22.3631 39.0858,19.117 36.992,19.117 Z" id="Shape"></path>
            <path d="M47.145,21.938 C44.4223,21.938 44.4223,26.1607 47.145,26.1607 C49.8677,26.156794 49.8677,21.938 47.145,21.938 Z" id="Shape"></path>
            <path d="M57.051,30.605 C58.5666,33.5894 58.8713,36.6597 59.8596,39.7808 C60.01585,40.27299 60.85569,40.37064 60.9573,39.7808 C61.53152,36.3746 60.03933,32.7613 58.4573,29.7886 C57.96121,28.85891 56.5784,29.67923 57.0511,30.60501 L57.051,30.605 Z" id="Shape"></path>
        </g>
    </g>
</svg>