<?xml version="1.0" encoding="UTF-8"?>
<svg width="64px" height="90px" viewBox="0 0 64 90" version="1.1" xmlns="http://www.w3.org/2000/svg" xmlns:xlink="http://www.w3.org/1999/xlink">
    <!-- Generator: Sketch 50.2 (55047) - http://www.bohemiancoding.com/sketch -->
    <title>np_bin_1227699_000000</title>
    <desc>Created with Sketch.</desc>
    <defs></defs>
    <g id="Page-1" stroke="none" stroke-width="1" fill="none" fill-rule="evenodd">
        <g id="np_bin_1227699_000000" transform="translate(0.000000, -1.000000)" fill="#000000" fill-rule="nonzero">
            <path d="M54.984,4.3555 L40.285,9.1563 L40.234219,9.1563 L3.234219,21.2073 L5.785019,29.1057 L57.535019,12.2077 L54.984,4.3555 Z M56.984,2.3555 L60.3356,12.6565 C60.46841,12.99244 60.45279,13.30494 60.284818,13.60572 C60.116848,13.9065 59.866848,14.10572 59.534818,14.20728 L5.284818,31.85528 L4.933258,31.906061 C4.667638,31.906061 4.468418,31.874811 4.331698,31.804501 C4.066078,31.671691 3.862948,31.421691 3.730138,31.054501 L0.429338,20.753501 C0.296528,20.421471 0.312148,20.105061 0.480119,19.804281 C0.648089,19.503501 0.898089,19.304281 1.230119,19.202721 L18.480119,13.554321 L17.030919,9.003521 C16.929359,8.671491 16.948888,8.355081 17.0817,8.054301 C17.24967,7.753521 17.49967,7.554301 17.8317,7.452741 L37.5817,1.054341 C37.91373,0.952781 38.23014,0.987934 38.53092,1.155901 C38.8317,1.288711 39.03092,1.523091 39.13248,1.855121 L40.63248,6.355121 L55.43348,1.554321 C55.76551,1.452761 56.08192,1.468383 56.3827,1.605102 C56.68348,1.769162 56.8827,2.019162 56.98426,2.355102 L56.984,2.3555 Z M37.132,3.8555 L19.78,9.4571 L20.9284,12.8087 L38.2294,7.1095 L37.132,3.8555 Z M41.2843,44.7535 L41.2843,83.7025 C41.2843,84.03844 41.15149,84.33531 40.88586,84.60094 C40.65148,84.83532 40.37024,84.9525 40.0343,84.9525 C39.70227,84.9525 39.38586,84.83531 39.08508,84.60094 C38.8507,84.36657 38.73352,84.06969 38.73352,83.7025 L38.73352,44.7535 C38.73352,44.42147 38.85071,44.12069 39.08508,43.85506 C39.38586,43.62068 39.70227,43.5035 40.0343,43.5035 C40.36633,43.5035 40.65149,43.62069 40.88586,43.85506 C41.15148,44.12068 41.2843,44.42147 41.2843,44.7535 Z M51.6823,43.7535 C51.91668,43.55428 52.21746,43.47225 52.58074,43.5035 C52.94793,43.538656 53.22918,43.68709 53.4323,43.95272 C53.66668,44.21834 53.74871,44.51913 53.6823,44.85116 L50.1315,83.85116 C50.10025,84.18319 49.96353,84.45272 49.73306,84.65194 C49.49868,84.85116 49.23306,84.95272 48.93228,84.95272 L48.78384,84.95272 C48.41665,84.92147 48.1354,84.76913 47.93228,84.5035 C47.73306,84.23788 47.65103,83.93709 47.68228,83.60506 L51.23308,44.60506 C51.268236,44.26912 51.41667,43.98787 51.6823,43.7535 Z M63.3343,36.4019 C63.59992,36.66752 63.70149,36.98784 63.63508,37.35112 L57.98668,89.85112 C57.95543,90.21831 57.80309,90.49956 57.53746,90.70268 C57.30309,90.9019 57.03746,91.00346 56.73668,91.00346 L12.23668,91.00346 C11.90465,91.00346 11.61949,90.9019 11.38512,90.70268 C11.15075,90.50346 11.01793,90.2183 10.98668,89.85112 L5.28748,37.35112 C5.221074,36.98393 5.322637,36.66753 5.58826,36.4019 C5.88904,36.13628 6.22107,36.00346 6.58826,36.00346 L62.44026,36.00346 C62.76838,36.00346 63.06526,36.13627 63.33479,36.4019 L63.3343,36.4019 Z M60.9827,38.5035 L7.9317,38.5035 L13.3809,88.4525 L55.5799,88.4525 L60.9827,38.5035 Z M17.7837,44.6051 L21.2837,83.6051 C21.350106,83.93713 21.268075,84.23791 21.0337,84.50354 C20.79932,84.77307 20.50245,84.92151 20.13526,84.95276 L19.98682,84.95276 C19.68604,84.95276 19.42041,84.8512 19.18604,84.65198 C18.95166,84.45276 18.81885,84.18323 18.7876,83.8512 L15.2876,44.8512 C15.25635,44.51917 15.338382,44.21839 15.5376,43.95276 C15.77198,43.68714 16.05323,43.5387 16.38916,43.50354 C16.75635,43.47229 17.07275,43.569946 17.33838,43.80432 C17.6001,44.00354 17.74854,44.26916 17.78369,44.6051 L17.7837,44.6051 Z M28.0847,43.8551 C28.35032,43.62072 28.65111,43.50354 28.98314,43.50354 C29.31908,43.50354 29.60033,43.62073 29.8347,43.8551 C30.10032,44.12072 30.23314,44.42151 30.23314,44.75354 L30.23314,83.70254 C30.23314,84.03848 30.10033,84.33535 29.8347,84.60098 C29.60032,84.83536 29.31907,84.95254 28.98314,84.95254 C28.65111,84.95254 28.35033,84.83535 28.0847,84.60098 C27.81907,84.36661 27.68626,84.06973 27.68626,83.70254 L27.68626,44.75354 C27.682354,44.42151 27.81517,44.12073 28.0847,43.8551 Z" id="Shape"></path>
        </g>
    </g>
</svg>