<?xml version="1.0" encoding="UTF-8"?>
<svg width="83px" height="56px" viewBox="0 0 83 56" version="1.1" xmlns="http://www.w3.org/2000/svg" xmlns:xlink="http://www.w3.org/1999/xlink">
    <!-- Generator: Sketch 50.2 (55047) - http://www.bohemiancoding.com/sketch -->
    <title>np_book_2307359_000000</title>
    <desc>Created with Sketch.</desc>
    <defs></defs>
    <g id="Page-1" stroke="none" stroke-width="1" fill="none" fill-rule="evenodd">
        <g id="np_book_2307359_000000" fill="#000000" fill-rule="nonzero">
            <path d="M80.9769766,56 L11.1331164,56 C4.99413633,56 0,51.0655776 0,45 C0,38.9344224 4.99413633,34 11.1331164,34 L80.9769766,34 C82.0955343,34 83,34.8936402 83,35.9988345 L83,54.0011655 C83,55.1020275 82.0955454,56 80.9769766,56 Z M11.1331164,37.9976691 C7.22688932,37.9976691 4.04604684,41.1405894 4.04604684,45 C4.04604684,48.8595212 7.22252694,52.0023309 11.1331164,52.0023309 L78.9501501,52.0023309 L78.9501501,38.0018688 L11.1331164,37.9976691 Z" id="Shape"></path>
            <path d="M62.8039528,24 L16.0320374,24 C14.9084958,24 14,23.1063329 14,22.0011052 L14,1.99889478 C14,0.893678161 14.9084845,0 16.0320374,0 L62.7994586,0 C69.5275631,0 74.9999974,5.38362069 74.9999974,12.0015473 C75.0043859,18.6156057 69.5314954,23.9986737 62.8039528,23.9986737 L62.8039528,24 Z M18.0690184,20.0022104 L62.8039528,20.0022104 C67.2893557,20.0022104 70.9364843,16.4145668 70.9364843,12.002321 C70.9364843,7.59007515 67.2893557,4.00243148 62.8039528,4.00243148 L18.0690184,4.00243148 L18.0690184,20.0022104 Z" id="Shape"></path>
            <path d="M76.9718679,38 L12.0281321,38 C10.9067497,38 10,37.106267 10,36.0009579 L10,21.9990421 C10,20.893744 10.9067385,20 12.0281321,20 L76.9718679,20 C78.0932503,20 79,20.893733 79,21.9990421 L79,36.0009579 C79,37.1019343 78.0932615,38 76.9718679,38 Z M14.0567127,33.9976052 L74.9444087,33.9976052 L74.9444087,23.9937735 L14.0567127,23.9937735 L14.0567127,33.9976052 Z" id="Shape"></path>
            <path d="M20,38 C18.8941723,38 18,37.10616 18,36.0007185 L18,27.9992815 C18,26.893851 18.8941612,26 20,26 C21.1058388,26 22,26.89384 22,27.9992815 L22,36.0007185 C22,37.1018267 21.1058388,38 20,38 Z" id="Shape"></path>
            <path d="M27.9999922,38 C26.8941688,38 26,37.10616 26,36.0007185 L26,27.9992815 C26,26.893851 26.8941578,26 27.9999922,26 C29.1058267,26 29.9999845,26.89384 29.9999845,27.9992815 L29.9999845,36.0007185 C30.0043038,37.1018267 29.1058267,38 27.9999922,38 Z" id="Shape"></path>
            <path d="M36,38 C34.8941723,38 34,37.10616 34,36.0007185 L34,27.9992815 C34,26.893851 34.8941612,26 36,26 C37.1058388,26 38,26.89384 38,27.9992815 L38,36.0007185 C38,37.1018267 37.1058388,38 36,38 Z" id="Shape"></path>
            <path d="M80.9763381,51 L16.0281316,51 C14.9067495,51 14,50.1058388 14,49 C14,47.8941612 14.9067383,47 16.0281316,47 L80.9718526,47 C82.0932347,47 82.9999842,47.8941612 82.9999842,49 C83.0043643,50.1015039 82.0976193,51 80.976226,51 L80.9763381,51 Z" id="Shape"></path>
            <path d="M80.9763381,44 L16.0281316,44 C14.9067495,44 14,43.1058388 14,42 C14,40.8941612 14.9067383,40 16.0281316,40 L80.9718526,40 C82.0932347,40 82.9999842,40.8941612 82.9999842,42 C83.0043643,43.1015039 82.0976193,44 80.976226,44 L80.9763381,44 Z" id="Shape"></path>
            <polygon id="Shape" points="22 10 26 10 26 14 22 14"></polygon>
            <polygon id="Shape" points="28 10 32 10 32 14 28 14"></polygon>
            <polygon id="Shape" points="34 10 38 10 38 14 34 14"></polygon>
            <polygon id="Shape" points="40 10 44 10 44 14 40 14"></polygon>
            <path d="M61,24 C59.8941723,24 59,23.106267 59,22.0009579 L59,7.99904208 C59,6.89374401 59.8941612,6 61,6 C62.1058388,6 63,6.89373296 63,7.99904208 L63,22.0009579 C63,23.106256 62.101515,24 61,24 Z" id="Shape"></path>
        </g>
    </g>
</svg>