<?xml version="1.0" encoding="UTF-8"?>
<svg width="64px" height="89px" viewBox="0 0 64 89" version="1.1" xmlns="http://www.w3.org/2000/svg" xmlns:xlink="http://www.w3.org/1999/xlink">
    <!-- Generator: Sketch 50.2 (55047) - http://www.bohemiancoding.com/sketch -->
    <title>np_book_307147_000000</title>
    <desc>Created with Sketch.</desc>
    <defs></defs>
    <g id="Page-1" stroke="none" stroke-width="1" fill="none" fill-rule="evenodd">
        <g id="np_book_307147_000000" fill="#000000" fill-rule="nonzero">
            <path d="M0,73 C1.9091886,71.297871 4.58498703,70.3510334 7.26078547,70.3510334 L64,70.3510334 L64,0 L9.93291591,0 C4.58498703,0 0.189818463,4.35109558 0.189818463,9.64539757 L0,73 Z M13.5651426,10.9680653 L50.6283438,10.9680653 L50.6283438,15.1276146 L13.5651426,15.1276146 L13.5651426,10.9680653 Z M13.5651426,28.5567314 L50.6283438,28.5567314 L50.6283438,32.7162807 L13.5651426,32.7162807 L13.5651426,28.5567314 Z" id="Shape"></path>
            <path d="M63.8101815,84.0236171 L10.5097073,84.0236171 L10.5097073,79.9728467 L63.8101815,79.9728467 L63.8101815,75 L7.26078547,75 C3.24892181,75 0,78.1322304 0,82 C0,85.8677696 3.24892181,89 7.26078547,89 L64,89 L64,84.0271533 L63.8101815,84.0236171 Z" id="Shape"></path>
        </g>
    </g>
</svg>