<?xml version="1.0" encoding="UTF-8"?>
<svg width="65px" height="57px" viewBox="0 0 65 57" version="1.1" xmlns="http://www.w3.org/2000/svg" xmlns:xlink="http://www.w3.org/1999/xlink">
    <!-- Generator: Sketch 50.2 (55047) - http://www.bohemiancoding.com/sketch -->
    <title>np_list_1823490_000000</title>
    <desc>Created with Sketch.</desc>
    <defs></defs>
    <g id="Page-1" stroke="none" stroke-width="1" fill="none" fill-rule="evenodd">
        <g id="np_list_1823490_000000" fill="#000000" fill-rule="nonzero">
            <path d="M21.922,0.0623 L21.918094,0.0623 C21.843875,0.058394 21.773564,0.0623 21.699344,0.070112 C21.011844,0.1248 20.398544,0.511522 20.054844,1.109212 L18.840044,3.160012 L2.082044,3.156106 C0.933644,3.156106 4.4e-05,4.085796 4.4e-05,5.226406 L4.4e-05,23.867406 C4.4e-05,25.011906 0.933634,25.937706 2.082044,25.937706 L20.832044,25.937706 C21.382824,25.941612 21.914044,25.722866 22.304744,25.332236 C22.695364,24.945516 22.914114,24.418176 22.914114,23.867436 L22.914114,5.226436 C22.914114,5.015496 22.882864,4.808466 22.820364,4.605346 L23.644584,3.214746 L23.644584,3.218652 C24.039114,2.585842 24.058644,1.792852 23.703178,1.140552 C23.343798,0.488212 22.664078,0.078052 21.917978,0.062452 L21.922,0.0623 Z M4.172,7.3006 L16.387,7.3006 L12.1995,14.3475 L8.7698,11.0155 L8.761988,11.011594 C8.371368,10.605344 7.832298,10.370974 7.265888,10.367064 C6.699478,10.363157 6.152588,10.589724 5.758088,10.992064 C5.363558,11.394404 5.148718,11.941284 5.168248,12.507664 C5.187779,13.070164 5.437778,13.601464 5.859658,13.976464 L11.179958,19.144464 L11.176051,19.144464 C11.633081,19.589774 12.273751,19.800714 12.906551,19.718684 C13.543271,19.636653 14.101851,19.265564 14.429951,18.718684 L18.750251,11.453084 L18.750251,21.797084 L4.168251,21.797084 L4.172,7.3006 Z M31.8168207,7.3006 L31.8109073,7.296694 C30.9417225,7.3006 30.2380644,8.226384 30.2380644,9.370894 C30.2380644,10.511494 30.941715,11.437294 31.8109073,11.441194 L63.2919843,11.441194 C63.7118102,11.4451 64.1138649,11.226354 64.4095724,10.835724 C64.7081787,10.449004 64.8737431,9.921664 64.8737431,9.370924 C64.8737431,8.820144 64.7081787,8.292824 64.4095724,7.902124 C64.1139255,7.515404 63.711833,7.296654 63.2919843,7.296654 L31.8168207,7.3006 Z M31.8168207,17.6556 L31.8109073,17.6556 C30.9417225,17.6556 30.2380644,18.58138 30.2380644,19.7259 C30.2380644,20.8665 30.941715,21.7923 31.8109073,21.7962 L63.2919843,21.7962 C64.1611691,21.792294 64.8648272,20.86651 64.8648272,19.7259 C64.8648272,18.5814 64.1611766,17.6556 63.2919843,17.6556 L31.8168207,17.6556 Z M2.09,34.2256 L2.082187,34.221694 C0.933787,34.221694 0.004087,35.147474 0.000187,36.288094 L0.000187,54.929094 C0.000187,56.073594 0.933777,56.999394 2.082187,56.999394 L20.832187,56.999394 C21.382967,56.999394 21.914187,56.780644 22.304887,56.393924 C22.695507,56.007204 22.914257,55.479864 22.914257,54.929124 L22.914257,36.288124 C22.914257,35.147524 21.980667,34.221724 20.832257,34.221724 L2.09,34.2256 Z M4.172,38.3623 L18.754,38.3623 L18.754,52.8623 L4.172,52.8623 L4.172,38.3623 Z M31.8168207,38.3623 L31.8109073,38.358394 C30.9417225,38.3623 30.2380644,39.288084 30.2380644,40.428694 C30.2380644,41.573194 30.941715,42.498994 31.8109073,42.502894 L63.2919843,42.502894 C63.7118102,42.502894 64.1138649,42.284144 64.4095724,41.897424 C64.7081787,41.506794 64.8737431,40.979454 64.8737431,40.428624 C64.8737431,39.881744 64.7081787,39.350524 64.4095724,38.963824 C64.1139255,38.573204 63.711833,38.358354 63.2919843,38.358354 L31.8168207,38.3623 Z M31.8168207,48.7173 L31.8109073,48.713394 C30.9417225,48.7173 30.2380644,49.643084 30.2380644,50.783694 C30.2380644,51.928194 30.941715,52.853994 31.8109073,52.857894 L63.2919843,52.857894 C64.1611691,52.853988 64.8648272,51.928204 64.8648272,50.783694 C64.8648272,49.643094 64.1611766,48.717294 63.2919843,48.713394 L31.8168207,48.7173 Z" id="Shape"></path>
        </g>
    </g>
</svg>